<svg aria-hidden="true" style="width:0;height:0;position:absolute;overflow:hidden" xmlns="http://www.w3.org/2000/svg"><defs><symbol id="icon-phone-blue" viewBox="0 0 32 32"><path fill="#008cef" style="fill:var(--color1,#008cef)" d="m28.853 21.796-4.516-.516a3.535 3.535 0 0 0-2.915 1.013l-3.271 3.271A26.75 26.75 0 0 1 6.435 13.848l3.289-3.289a3.538 3.538 0 0 0 1.013-2.916l-.516-4.48A3.559 3.559 0 0 0 6.684.017H3.608c-2.009 0-3.68 1.671-3.556 3.68.942 15.182 13.084 27.307 28.249 28.249 2.009.124 3.68-1.547 3.68-3.556v-3.076c.018-1.796-1.333-3.307-3.129-3.52z"/></symbol><symbol id="icon-burger-menu" viewBox="0 0 57 32"><path fill="#487996" style="fill:var(--color2,#487996)" d="M56.889 1.778c0 .982-.796 1.778-1.778 1.778H1.778a1.778 1.778 0 1 1 0-3.556h53.333c.982 0 1.778.796 1.778 1.778zm0 28.444c0 .982-.796 1.778-1.778 1.778H1.778a1.778 1.778 0 1 1 0-3.556h53.333c.982 0 1.778.796 1.778 1.778zm0-14.236c0 .974-.789 1.764-1.764 1.764H1.763a1.764 1.764 0 0 1 0-3.528h53.362c.974 0 1.764.79 1.764 1.764z"/></symbol><symbol id="icon-clip" viewBox="0 0 32 32"><path fill="#cdcdcd" style="fill:var(--color3,#cdcdcd)" d="M5.727 30.545c-1.354 0-2.556-.508-3.606-1.525C1.01 27.945.454 26.64.454 25.105s.556-2.84 1.667-3.915L19.545 3.301c.889-.88 1.914-1.447 3.076-1.701s2.338-.186 3.53.205c1.192.391 2.293 1.065 3.303 2.023.323.332.621.699.894 1.1s.495.821.667 1.261a8 8 0 0 1 .53 2.859c-.04 2.072-.768 3.803-2.182 5.191L16.181 27.787c-.182.195-.404.298-.667.308s-.49-.073-.682-.249c-.192-.176-.293-.396-.303-.66s.076-.494.258-.689l13.182-13.548c1.071-1.056 1.616-2.366 1.636-3.93s-.495-2.845-1.545-3.842c-.647-.645-1.364-1.134-2.152-1.466s-1.636-.44-2.545-.323c-.909.117-1.717.518-2.424 1.202L3.515 22.479c-.747.724-1.121 1.593-1.121 2.61s.374 1.887 1.121 2.61c.343.332.717.582 1.121.748s.828.23 1.273.191c.889-.039 1.717-.44 2.485-1.202l13.849-14.252a4.196 4.196 0 0 0 .576-.689c.101-.147.182-.303.242-.469s.101-.332.121-.499-.01-.337-.091-.513a1.671 1.671 0 0 0-.364-.499c-.384-.391-.758-.567-1.121-.528-.384.039-.818.283-1.303.733L9.879 21.453c-.121.117-.263.2-.424.249s-.328.054-.5.015a.9.9 0 0 1-.439-.235c-.202-.176-.303-.391-.303-.645s.091-.479.273-.674L18.91 9.401c.828-.782 1.667-1.212 2.515-1.29.97-.078 1.858.274 2.667 1.056.768.723 1.106 1.574 1.015 2.551s-.581 1.896-1.47 2.757L9.789 28.757c-1.131 1.095-2.394 1.681-3.788 1.759-.04 0-.086.005-.136.015s-.096.015-.136.015z"/></symbol><symbol id="icon-button-play" viewBox="0 0 32 32"><path fill="#487996" style="fill:var(--color2,#487996)" d="M28.69 15.044a1.103 1.103 0 0 1 0 1.911l-24 13.856a1.103 1.103 0 0 1-1.655-.956V2.142c0-.849.92-1.38 1.655-.956l24 13.856z"/></symbol><symbol id="icon-burger-close" viewBox="0 0 32 32"><path fill="#487996" style="fill:var(--color2,#487996)" d="m18.613 15.912 12.96-12.96A1.78 1.78 0 0 0 31.48.539a1.775 1.775 0 0 0-2.414-.093l-12.96 12.96L3.146.428A1.78 1.78 0 0 0 .733.521 1.775 1.775 0 0 0 .64 2.934L13.6 15.912.622 28.872a1.785 1.785 0 0 0-.62 1.282 1.79 1.79 0 0 0 .519 1.326 1.767 1.767 0 0 0 1.326.519 1.785 1.785 0 0 0 1.282-.62l12.978-12.96 12.96 12.96a1.78 1.78 0 0 0 2.414-.093 1.775 1.775 0 0 0 .093-2.413l-12.96-12.96z"/></symbol><symbol id="icon-bullet" viewBox="0 0 32 32"><path fill="#487996" style="fill:var(--color2,#487996)" d="M0 13.714C0 6.14 6.14 0 13.714 0H32v18.286C32 25.86 25.86 32 18.286 32H0V13.714z"/></symbol><symbol id="icon-arrow-blue" viewBox="0 0 32 32"><path fill="#008cef" style="fill:var(--color1,#008cef)" d="m16 11.2 13.856 9.6H2.143l13.856-9.6z"/></symbol><symbol id="icon-arrow-black-top" viewBox="0 0 32 32"><path d="M14.623 8.064a1.882 1.882 0 0 1 2.753 0l12.787 13.711c1.122 1.203.269 3.166-1.377 3.166H3.212c-1.646 0-2.499-1.963-1.377-3.166L14.622 8.064z"/></symbol><symbol id="icon-arrow-black-down" viewBox="0 0 32 32"><path d="M16.849 24.373a1.999 1.999 0 0 1-2.959 0L.68 9.846C-.488 8.561.423 6.5 2.16 6.5h26.421c1.737 0 2.648 2.061 1.48 3.346L16.85 24.373z"/></symbol><symbol id="icon-more-photo-loader" viewBox="0 0 32 32"><path d="M16 5.333v3.048M23.619 8.381l-2.286 2.286M8.381 8.381l2.286 2.286M16 26.666v-3.048M23.619 23.619l-2.286-2.286M8.381 23.619l2.286-2.286M5.333 16h3.048M23.619 16h3.048"/></symbol><symbol id="cancel-icon" viewBox="0 0 32 32"><path d="M16 0C7.163 0 0 7.163 0 16s7.163 16 16 16 16-7.163 16-16S24.837 0 16 0zm0 29C8.82 29 3 23.18 3 16S8.82 3 16 3s13 5.82 13 13-5.82 13-13 13z"/><path d="m21 8-5 5-5-5-3 3 5 5-5 5 3 3 5-5 5 5 3-3-5-5 5-5z"/></symbol><symbol id="next-icon" viewBox="0 0 32 32"><path fill="#fff" d="M8.381 29.196 21.797 16 8.381 2.804 10.453.762l15.451 15.246-15.451 15.23-2.072-2.042z"/></symbol><symbol id="prev-icon" viewBox="0 0 32 32"><path fill="#fff" d="M23.619 2.804 10.203 16l13.416 13.196-2.072 2.042L6.096 15.992 21.547.762l2.072 2.042z"/></symbol></defs></svg>