<svg aria-hidden="true" style="width:0;height:0;position:absolute;overflow:hidden" xmlns="http://www.w3.org/2000/svg"><defs><symbol id="icon-up" viewBox="0 0 54 32"><path d="M24.861 2.509c.586-.626 1.417-1.016 2.339-1.016s1.754.39 2.338 1.015l.002.002 21.738 23.309c1.91 2.048.458 5.382-2.336 5.382H5.46c-2.794 0-4.246-3.338-2.339-5.382L24.865 2.51z"/></symbol><symbol id="icon-down" viewBox="0 0 51 32"><path d="M26.957 29.395c-.588.645-1.431 1.048-2.368 1.048s-1.78-.403-2.366-1.045l-.002-.003L1.088 6.153C-.784 4.095.675.799 3.456.799h42.272c2.781 0 4.24 3.296 2.368 5.354L26.96 29.395z"/></symbol><symbol id="icon-atatch" viewBox="0 0 35 32"><path fill="#cdcdcd" style="fill:var(--color1,#cdcdcd)" d="M6.301 32c-1.488 0-2.811-.56-3.968-1.678C1.112 29.138.501 27.704.501 26.016c0-1.69.611-3.125 1.832-4.307L21.501 2.032A6.795 6.795 0 0 1 24.838.169l.046-.009a7.09 7.09 0 0 1 1.535-.164c.841 0 1.648.143 2.399.405l-.051-.016c1.312.432 2.523 1.173 3.634 2.227.352.363.676.758.964 1.179l.02.031c.299.44.544.902.733 1.387.369.933.583 2.014.584 3.145-.045 2.278-.845 4.182-2.4 5.709L17.801 28.965a1.013 1.013 0 0 1-.731.339h-.001a1.011 1.011 0 0 1-.751-.274c-.2-.18-.327-.438-.333-.725v-.001l-.001-.053c0-.274.109-.523.285-.706l14.499-14.902c1.178-1.162 1.778-2.603 1.8-4.323s-.544-3.13-1.699-4.226a7.44 7.44 0 0 0-2.32-1.594l-.048-.019a5.23 5.23 0 0 0-2.046-.409c-.266 0-.527.019-.783.057l.029-.003c-.998.128-1.888.57-2.666 1.323L3.867 23.126c-.821.797-1.232 1.754-1.232 2.872 0 1.117.411 2.075 1.232 2.87.379.365.79.64 1.235.822.443.182.912.253 1.4.21.976-.043 1.888-.483 2.733-1.323L24.467 12.9c.234-.226.443-.474.625-.742l.01-.016a2.44 2.44 0 0 0 .399-1.052l.001-.012a1.025 1.025 0 0 0-.103-.57l.003.006a1.847 1.847 0 0 0-.399-.548l-.001-.001c-.422-.429-.832-.624-1.232-.581-.424.043-.901.312-1.434.806L10.869 21.998a1.139 1.139 0 0 1-.459.27l-.008.002a1.057 1.057 0 0 1-1.034-.241l.001.001a.907.907 0 0 1-.333-.702v-.009c0-.28.099-.528.299-.742L20.802 8.739c.912-.859 1.834-1.333 2.768-1.419 1.066-.086 2.043.301 2.933 1.162.843.795 1.216 1.731 1.117 2.806-.101 1.075-.64 2.086-1.616 3.032L10.767 30.03c-1.243 1.203-2.634 1.85-4.166 1.936a.801.801 0 0 0-.156.017l.005-.001a.754.754 0 0 1-.148.016z"/></symbol><symbol id="icon-mozaika-4" viewBox="0 0 32 32"><path fill="#fff" style="fill:var(--color1,#fff)" d="M16.47 31.801C7.381 31.801.013 24.433.013 15.344V.162h15.183c9.089 0 16.457 7.368 16.457 16.457v15.182H16.47z"/></symbol><symbol id="icon-mozaika-3" viewBox="0 0 32 32"><path fill="#fff" style="fill:var(--color1,#fff)" d="M.047 16.576C.047 7.422 7.468 0 16.623 0h15.291v15.292c0 9.155-7.421 16.576-16.576 16.576H.047V16.577z"/></symbol><symbol id="icon-mozaika-5" viewBox="0 0 32 32"><path fill="#fff" style="fill:var(--color1,#fff)" d="M16.043.173c8.737 0 15.82 7.083 15.82 15.82s-7.083 15.82-15.82 15.82S.223 24.73.223 15.993 7.306.173 16.043.173z"/></symbol><symbol id="icon-mozaika-1" viewBox="0 0 32 32"><path fill="#fff" style="fill:var(--color1,#fff)" d="M0 31.867V0h15.292c9.154 0 16.576 7.421 16.576 16.576v15.292H.001z"/></symbol><symbol id="icon-mozaika-6" viewBox="0 0 32 32"><path fill="#fff" style="fill:var(--color1,#fff)" d="M.11.209h31.64v15.182c0 9.089-7.368 16.457-16.457 16.457H.111V.208z"/></symbol><symbol id="icon-mozaika-2" viewBox="0 0 32 32"><path fill="#fff" style="fill:var(--color1,#fff)" d="M.014.114h31.867v31.867H16.59C7.435 31.981.014 24.56.014 15.405V.114z"/></symbol></defs></svg>