<svg aria-hidden="true" style="position: absolute; width: 0; height: 0; overflow: hidden;" version="1.1" xmlns="http://www.w3.org/2000/svg" xmlns:xlink="http://www.w3.org/1999/xlink">
<defs>
<symbol id="icon-up" viewBox="0 0 54 32">
<path d="M24.861 2.509c0.586-0.626 1.417-1.016 2.339-1.016s1.754 0.39 2.338 1.015l0.002 0.002 21.738 23.309c1.91 2.048 0.458 5.382-2.336 5.382h-43.482c-2.794 0-4.246-3.338-2.339-5.382l21.744-23.309z"></path>
</symbol>
<symbol id="icon-down" viewBox="0 0 51 32">
<path d="M26.957 29.395c-0.588 0.645-1.431 1.048-2.368 1.048s-1.78-0.403-2.366-1.045l-0.002-0.003-21.133-23.242c-1.872-2.058-0.413-5.354 2.368-5.354h42.272c2.781 0 4.24 3.296 2.368 5.354l-21.136 23.242z"></path>
</symbol>
<symbol id="icon-atatch" viewBox="0 0 35 32">
<path fill="#cdcdcd" style="fill: var(--color1, #cdcdcd)" d="M6.301 32c-1.488 0-2.811-0.56-3.968-1.678-1.221-1.184-1.832-2.618-1.832-4.306 0-1.69 0.611-3.125 1.832-4.307l19.168-19.677c0.897-0.911 2.047-1.57 3.337-1.863l0.046-0.009c0.461-0.104 0.991-0.164 1.535-0.164 0.841 0 1.648 0.143 2.399 0.405l-0.051-0.016c1.312 0.432 2.523 1.173 3.634 2.227 0.352 0.363 0.676 0.758 0.964 1.179l0.020 0.031c0.299 0.44 0.544 0.902 0.733 1.387 0.369 0.933 0.583 2.014 0.584 3.145v0c-0.045 2.278-0.845 4.182-2.4 5.709l-14.501 14.902c-0.181 0.202-0.441 0.332-0.731 0.339l-0.001 0c-0.017 0.001-0.037 0.002-0.056 0.002-0.269 0-0.513-0.105-0.695-0.276l0 0c-0.2-0.18-0.327-0.438-0.333-0.725v-0.001c-0.001-0.016-0.001-0.035-0.001-0.053 0-0.274 0.109-0.523 0.285-0.706l-0 0 14.499-14.902c1.178-1.162 1.778-2.603 1.8-4.323s-0.544-3.13-1.699-4.226c-0.661-0.67-1.447-1.213-2.32-1.594l-0.048-0.019c-0.605-0.259-1.308-0.409-2.046-0.409-0.266 0-0.527 0.019-0.783 0.057l0.029-0.003c-0.998 0.128-1.888 0.57-2.666 1.323l-19.168 19.677c-0.821 0.797-1.232 1.754-1.232 2.872 0 1.117 0.411 2.075 1.232 2.87 0.379 0.365 0.79 0.64 1.235 0.822 0.443 0.182 0.912 0.253 1.4 0.21 0.976-0.043 1.888-0.483 2.733-1.323l15.232-15.677c0.234-0.226 0.443-0.474 0.625-0.742l0.010-0.016c0.205-0.302 0.348-0.662 0.399-1.052l0.001-0.012c0.004-0.032 0.006-0.070 0.006-0.107 0-0.167-0.039-0.324-0.109-0.463l0.003 0.006c-0.103-0.214-0.237-0.395-0.399-0.548l-0.001-0.001c-0.422-0.429-0.832-0.624-1.232-0.581-0.424 0.043-0.901 0.312-1.434 0.806l-11.467 11.808c-0.128 0.123-0.284 0.217-0.459 0.27l-0.008 0.002c-0.093 0.029-0.199 0.046-0.309 0.046-0.28 0-0.535-0.109-0.725-0.287l0.001 0.001c-0.204-0.168-0.333-0.42-0.333-0.702 0-0.003 0-0.006 0-0.009v0c0-0.28 0.099-0.528 0.299-0.742l11.467-11.838c0.912-0.859 1.834-1.333 2.768-1.419 1.066-0.086 2.043 0.301 2.933 1.162 0.843 0.795 1.216 1.731 1.117 2.806-0.101 1.075-0.64 2.086-1.616 3.032l-15.237 15.71c-1.243 1.203-2.634 1.85-4.166 1.936-0.054 0.001-0.105 0.006-0.156 0.017l0.005-0.001c-0.044 0.010-0.096 0.015-0.148 0.016h-0z"></path>
</symbol>
<symbol id="icon-mozaika-4" viewBox="0 0 32 32">
<path fill="#fff" style="fill: var(--color1, #fff)" d="M16.47 31.801c-9.089 0-16.457-7.368-16.457-16.457v-15.182h15.183c9.089 0 16.457 7.368 16.457 16.457v15.182h-15.183z"></path>
</symbol>
<symbol id="icon-mozaika-3" viewBox="0 0 32 32">
<path fill="#fff" style="fill: var(--color1, #fff)" d="M0.047 16.576c0-9.154 7.421-16.576 16.576-16.576h15.291v15.292c0 9.155-7.421 16.576-16.576 16.576h-15.291v-15.291z"></path>
</symbol>
<symbol id="icon-mozaika-5" viewBox="0 0 32 32">
<path fill="#fff" style="fill: var(--color1, #fff)" d="M16.043 0.173h0c8.737 0 15.82 7.083 15.82 15.82v0c0 8.737-7.083 15.82-15.82 15.82h-0c-8.737 0-15.82-7.083-15.82-15.82v-0c0-8.737 7.083-15.82 15.82-15.82z"></path>
</symbol>
<symbol id="icon-mozaika-1" viewBox="0 0 32 32">
<path fill="#fff" style="fill: var(--color1, #fff)" d="M0 31.867v-31.867h15.292c9.154 0 16.576 7.421 16.576 16.576v15.292h-31.867z"></path>
</symbol>
<symbol id="icon-mozaika-6" viewBox="0 0 32 32">
<path fill="#fff" style="fill: var(--color1, #fff)" d="M0.11 0.209h31.64v15.182c0 9.089-7.368 16.457-16.457 16.457h-15.182v-31.64z"></path>
</symbol>
<symbol id="icon-mozaika-2" viewBox="0 0 32 32">
<path fill="#fff" style="fill: var(--color1, #fff)" d="M0.014 0.114h31.867v31.867h-15.291c-9.155 0-16.576-7.421-16.576-16.576v-15.291z"></path>
</symbol>
</defs>
</svg>
