<svg aria-hidden="true" style="position: absolute; width: 0; height: 0; overflow: hidden;" version="1.1" xmlns="http://www.w3.org/2000/svg" xmlns:xlink="http://www.w3.org/1999/xlink">
<defs>
<symbol id="icon-phone-blue" viewBox="0 0 32 32">
<path fill="#008cef" style="fill: var(--color1, #008cef)" d="M28.853 21.796l-4.516-0.516c-0.531-0.062-1.069-0.004-1.574 0.172s-0.964 0.463-1.341 0.841l-3.271 3.271c-5.047-2.567-9.149-6.669-11.716-11.716l3.289-3.289c0.764-0.764 1.138-1.831 1.013-2.916l-0.516-4.48c-0.101-0.867-0.517-1.667-1.169-2.247s-1.495-0.9-2.368-0.899h-3.076c-2.009 0-3.68 1.671-3.556 3.68 0.942 15.182 13.084 27.307 28.249 28.249 2.009 0.124 3.68-1.547 3.68-3.556v-3.076c0.018-1.796-1.333-3.307-3.129-3.52z"></path>
</symbol>
<symbol id="icon-burger-menu" viewBox="0 0 57 32">
<path fill="#487996" style="fill: var(--color2, #487996)" d="M56.889 1.778c0 0.982-0.796 1.778-1.778 1.778h-53.333c-0.982 0-1.778-0.796-1.778-1.778s0.796-1.778 1.778-1.778h53.333c0.982 0 1.778 0.796 1.778 1.778zM56.889 30.222c0 0.982-0.796 1.778-1.778 1.778h-53.333c-0.982 0-1.778-0.796-1.778-1.778s0.796-1.778 1.778-1.778h53.333c0.982 0 1.778 0.796 1.778 1.778zM56.889 15.986c0 0.974-0.789 1.764-1.764 1.764h-53.362c-0.974 0-1.764-0.79-1.764-1.764s0.79-1.764 1.764-1.764h53.362c0.974 0 1.764 0.79 1.764 1.764z"></path>
</symbol>
<symbol id="icon-clip" viewBox="0 0 32 32">
<path fill="#cdcdcd" style="fill: var(--color3, #cdcdcd)" d="M5.727 30.545c-1.354 0-2.556-0.508-3.606-1.525-1.111-1.075-1.667-2.38-1.667-3.915s0.556-2.84 1.667-3.915l17.424-17.889c0.889-0.88 1.914-1.447 3.076-1.701s2.338-0.186 3.53 0.205c1.192 0.391 2.293 1.065 3.303 2.023 0.323 0.332 0.621 0.699 0.894 1.1s0.495 0.821 0.667 1.261c0.172 0.44 0.303 0.904 0.394 1.393s0.136 0.978 0.136 1.466c-0.040 2.072-0.768 3.803-2.182 5.191l-13.182 13.548c-0.182 0.195-0.404 0.298-0.667 0.308s-0.49-0.073-0.682-0.249c-0.192-0.176-0.293-0.396-0.303-0.66s0.076-0.494 0.258-0.689l13.182-13.548c1.071-1.056 1.616-2.366 1.636-3.93s-0.495-2.845-1.545-3.842c-0.647-0.645-1.364-1.134-2.152-1.466s-1.636-0.44-2.545-0.323c-0.909 0.117-1.717 0.518-2.424 1.202l-17.424 17.889c-0.747 0.724-1.121 1.593-1.121 2.61s0.374 1.887 1.121 2.61c0.343 0.332 0.717 0.582 1.121 0.748s0.828 0.23 1.273 0.191c0.889-0.039 1.717-0.44 2.485-1.202l13.849-14.252c0.101-0.098 0.197-0.2 0.288-0.308s0.187-0.235 0.288-0.381c0.101-0.147 0.182-0.303 0.242-0.469s0.101-0.332 0.121-0.499-0.010-0.337-0.091-0.513c-0.081-0.176-0.202-0.342-0.364-0.499-0.384-0.391-0.758-0.567-1.121-0.528-0.384 0.039-0.818 0.283-1.303 0.733l-10.424 10.733c-0.121 0.117-0.263 0.2-0.424 0.249s-0.328 0.054-0.5 0.015c-0.172-0.039-0.318-0.117-0.439-0.235-0.202-0.176-0.303-0.391-0.303-0.645s0.091-0.479 0.273-0.674l10.424-10.762c0.828-0.782 1.667-1.212 2.515-1.29 0.97-0.078 1.858 0.274 2.667 1.056 0.768 0.723 1.106 1.574 1.015 2.551s-0.581 1.896-1.47 2.757l-13.848 14.282c-1.131 1.095-2.394 1.681-3.788 1.759-0.040 0-0.086 0.005-0.136 0.015s-0.096 0.015-0.136 0.015z"></path>
</symbol>
<symbol id="icon-button-play" viewBox="0 0 32 32">
<path fill="#487996" style="fill: var(--color2, #487996)" d="M28.69 15.044c0.736 0.425 0.736 1.486 0 1.911l-24 13.856c-0.736 0.425-1.655-0.106-1.655-0.956v-27.713c0-0.849 0.92-1.38 1.655-0.956l24 13.856z"></path>
</symbol>
<symbol id="icon-burger-close" viewBox="0 0 32 32">
<path fill="#487996" style="fill: var(--color2, #487996)" d="M18.613 15.912l12.96-12.96c0.291-0.34 0.443-0.778 0.426-1.225s-0.203-0.872-0.519-1.188c-0.317-0.317-0.741-0.502-1.189-0.519s-0.885 0.135-1.225 0.426l-12.96 12.96-12.96-12.978c-0.34-0.291-0.778-0.443-1.225-0.426s-0.872 0.203-1.188 0.519c-0.317 0.317-0.502 0.741-0.519 1.188s0.135 0.885 0.426 1.225l12.96 12.978-12.978 12.96c-0.186 0.159-0.337 0.356-0.444 0.576s-0.167 0.461-0.176 0.706c-0.009 0.245 0.032 0.489 0.121 0.717s0.225 0.435 0.398 0.609c0.173 0.173 0.38 0.309 0.609 0.398s0.472 0.131 0.717 0.121 0.485-0.069 0.706-0.176c0.221-0.107 0.417-0.258 0.576-0.444l12.978-12.96 12.96 12.96c0.34 0.291 0.778 0.443 1.225 0.426s0.872-0.203 1.189-0.519c0.317-0.317 0.502-0.741 0.519-1.188s-0.135-0.885-0.426-1.225l-12.96-12.96z"></path>
</symbol>
<symbol id="icon-bullet" viewBox="0 0 32 32">
<path fill="#487996" style="fill: var(--color2, #487996)" d="M0 13.714c0-7.574 6.14-13.714 13.714-13.714h18.286v18.286c0 7.574-6.14 13.714-13.714 13.714h-18.286v-18.286z"></path>
</symbol>
<symbol id="icon-arrow-blue" viewBox="0 0 32 32">
<path fill="#008cef" style="fill: var(--color1, #008cef)" d="M16 11.2l13.856 9.6h-27.713l13.856-9.6z"></path>
</symbol>
<symbol id="icon-arrow-black-top" viewBox="0 0 32 32">
<path d="M14.623 8.064c0.744-0.798 2.009-0.798 2.753 0l12.787 13.711c1.122 1.203 0.269 3.166-1.377 3.166h-25.574c-1.646 0-2.499-1.963-1.377-3.166l12.787-13.711z"></path>
</symbol>
<symbol id="icon-arrow-black-down" viewBox="0 0 32 32">
<path d="M16.849 24.373c-0.794 0.873-2.166 0.873-2.959 0l-13.21-14.527c-1.168-1.285-0.257-3.346 1.48-3.346h26.421c1.737 0 2.648 2.061 1.48 3.346l-13.211 14.527z"></path>
</symbol>
<symbol id="icon-more-photo-loader" viewBox="0 0 32 32">
<path d="M16 5.333v3.048"></path>
<path d="M23.619 8.381l-2.286 2.286"></path>
<path d="M8.381 8.381l2.286 2.286"></path>
<path d="M16 26.666v-3.048"></path>
<path d="M23.619 23.619l-2.286-2.286"></path>
<path d="M8.381 23.619l2.286-2.286"></path>
<path d="M5.333 16h3.048"></path>
<path d="M23.619 16h3.048"></path>
</symbol>
<symbol id="cancel-icon" viewBox="0 0 32 32">
<path d="M16 0c-8.837 0-16 7.163-16 16s7.163 16 16 16 16-7.163 16-16-7.163-16-16-16zM16 29c-7.18 0-13-5.82-13-13s5.82-13 13-13 13 5.82 13 13-5.82 13-13 13z"></path>
<path d="M21 8l-5 5-5-5-3 3 5 5-5 5 3 3 5-5 5 5 3-3-5-5 5-5z"></path>
</symbol>
<symbol id="next-icon" viewBox="0 0 32 32">
<path fill="#fff" d="M8.381 29.196l13.416-13.196-13.416-13.196 2.072-2.042 15.451 15.246-15.451 15.23-2.072-2.042z"></path>
</symbol>
<symbol id="prev-icon" viewBox="0 0 32 32">
<path fill="#fff" d="M23.619 2.804l-13.416 13.196 13.416 13.196-2.072 2.042-15.451-15.246 15.451-15.23 2.072 2.042z"></path>
</symbol>
</defs>
</svg>
