<svg width="33" height="33" viewBox="0 0 33 33" fill="none" xmlns="http://www.w3.org/2000/svg">
<path fill-rule="evenodd" clip-rule="evenodd" d="M16.398 2.29782C16.1324 2.29782 15.8777 2.40339 15.69 2.59131C15.5022 2.77923 15.3967 3.03411 15.3967 3.29987L15.3967 26.9342L9.09666 20.6273C8.90865 20.4391 8.65365 20.3334 8.38776 20.3334C8.12187 20.3334 7.86687 20.4391 7.67885 20.6273C7.49084 20.8154 7.38522 21.0706 7.38522 21.3367C7.38522 21.6028 7.49084 21.858 7.67885 22.0462L15.6891 30.0625C15.7821 30.1559 15.8926 30.2299 16.0142 30.2804C16.1358 30.3309 16.2663 30.3569 16.398 30.3569C16.5297 30.3569 16.6601 30.3309 16.7817 30.2804C16.9034 30.2299 17.0139 30.1559 17.1069 30.0625L25.1171 22.0462C25.2102 21.953 25.284 21.8424 25.3344 21.7207C25.3848 21.5989 25.4107 21.4685 25.4107 21.3367C25.4107 21.0706 25.3051 20.8154 25.1171 20.6273C24.9291 20.4391 24.6741 20.3334 24.4082 20.3334C24.1423 20.3334 23.8873 20.4391 23.6993 20.6273L17.3992 26.9342L17.3992 3.29987C17.3992 3.03411 17.2937 2.77923 17.106 2.59131C16.9182 2.40339 16.6635 2.29782 16.398 2.29782Z" fill="#008CEF"/>
</svg>
